<?xml version="1.0" encoding="utf-8"?>
<!-- Generator: Adobe Illustrator 24.0.0, SVG Export Plug-In . SVG Version: 6.00 Build 0)  -->
<svg version="1.1" id="Layer_1" xmlns="http://www.w3.org/2000/svg" xmlns:xlink="http://www.w3.org/1999/xlink" x="0px" y="0px"
	 viewBox="0 0 512 512" style="enable-background:new 0 0 512 512;" xml:space="preserve">
<style type="text/css">
	.st0{fill:#B3B3B3;}
	.st1{fill:#979797;}
	.st2{fill:#D80027;}
	.st3{fill:#FFDA44;}
	.st4{fill:#C7C7C7;}
	.st5{fill:url(#SVGID_1_);}
	.st6{fill:url(#SVGID_2_);}
	.st7{fill:url(#SVGID_3_);}
	.st8{fill:url(#SVGID_4_);}
	.st9{fill:url(#SVGID_5_);}
	.st10{fill:url(#SVGID_6_);}
</style>
<path class="st0" d="M147,209.8c-11.8-23.9-35.5-40.9-63.4-40.9v37.4c19.7,0,35.7,16.1,35.7,36.6c0,20.3-16.2,37.7-35.7,37.7v77.4
	c25.1-27.2,54-57.1,66.6-92.9C156.6,247.3,155.4,226.8,147,209.8z"/>
<path class="st1" d="M17.1,265.3c12.6,35.8,41.5,65.7,66.6,92.9v-77.4c-19.6,0-35.7-17.5-35.7-37.7c0-20.5,16-36.6,35.7-36.6V169
	c-27.8,0-51.6,17-63.4,40.9C11.9,226.8,10.7,247.3,17.1,265.3z"/>
<ellipse class="st2" cx="83.7" cy="242.4" rx="56.8" ry="59.1"/>
<polygon class="st3" points="111.4,242.4 100.1,248 106.1,259.4 93.8,257 92.2,269.9 83.7,260.4 75.1,269.9 73.5,257 61.2,259.4 
	67.2,248 55.9,242.4 67.2,236.9 61.2,225.4 73.5,227.9 75.1,214.9 83.7,224.4 92.2,214.9 93.8,227.9 106.1,225.4 100.1,236.9 "/>
<ellipse class="st2" cx="83.7" cy="242.4" rx="17.3" ry="18"/>
<g>
	<path class="st3" d="M75,242.4c-0.4,0-0.8,0-1.2,0.1c0,2.5,0.9,4.8,2.3,6.5c0.8-2.1,1.9-4.1,3.3-5.8
		C78.1,242.7,76.6,242.4,75,242.4z"/>
	<path class="st3" d="M80.3,252.1c1,0.4,2.2,0.6,3.3,0.6s2.3-0.2,3.3-0.6c-0.6-2.3-1.7-4.4-3.3-6C82.1,247.7,80.9,249.8,80.3,252.1z
		"/>
	<path class="st3" d="M92.2,237.3c-1.7-3.1-4.9-5.1-8.6-5.1c-3.7,0-6.8,2.1-8.6,5.1c3.1,0,6,0.9,8.6,2.4
		C86.2,238.2,89.1,237.3,92.2,237.3z"/>
	<path class="st3" d="M87.9,243.3c1.4,1.7,2.6,3.6,3.3,5.8c1.4-1.8,2.3-4.1,2.3-6.5c-0.4,0-0.8-0.1-1.2-0.1
		C90.7,242.4,89.3,242.7,87.9,243.3z"/>
</g>
<path class="st4" d="M83.6,177c-26.2,0-50.2,17.6-59.2,43.2c-9,25.8-1.1,55.4,19.2,72.8c20.3,17.5,49.9,19.8,72.4,5.6
	c22.6-14.2,34.5-42.4,29.2-69.3c-5.2-26.4-26.3-47.3-51.9-51.5C90.2,177.2,86.9,177,83.6,177 M134.3,266.2
	c-10.7,24.8-37.5,38.7-63,32.7c-19.6-4.7-35.7-20.6-41.1-40.7c-5.6-20.6,0.5-43.2,15.4-57.8c16.2-15.8,40.5-20.2,60.8-10.6
	c24.2,11.4,37.6,40,31.1,66.8C136.7,259.9,135.6,263.1,134.3,266.2C133.6,267.9,134.8,264.9,134.3,266.2"/>
<g>
	<linearGradient id="SVGID_1_" gradientUnits="userSpaceOnUse" x1="159.3188" y1="258.934" x2="227.4113" y2="258.934">
		<stop  offset="0" style="stop-color:#D80027"/>
		<stop  offset="0.5503" style="stop-color:#B3B3B3"/>
		<stop  offset="1" style="stop-color:#000000"/>
	</linearGradient>
	<path class="st5" d="M199,215.1c5.7,0,10.5,1.3,14.4,3.9c3.9,2.6,7,6,9.2,10.2s3.7,9,4.3,14.4c0.6,5.4,0.6,10.8-0.2,16.4
		c-0.7,5.4-2.1,10.6-4.2,15.7c-2,5.1-4.6,9.7-7.8,13.7c-3.2,4-6.8,7.2-11.1,9.6c-4.2,2.4-8.9,3.7-14.1,3.7h-1.2
		c-5.8-0.1-10.7-1.5-14.7-4.1c-4-2.6-7.1-6-9.4-10.2c-2.3-4.2-3.8-8.9-4.5-14.2c-0.7-5.3-0.7-10.6,0.1-16c0.8-5.5,2.3-10.8,4.4-16
		c2.1-5.2,4.8-9.7,8.1-13.7c3.3-4,7.2-7.2,11.7-9.6C188.6,216.3,193.6,215.1,199,215.1z M189.5,282.8c0.3,0.1,0.9,0.1,1.6,0.1
		c2.1,0,4.1-0.6,5.8-1.7c1.8-1.2,3.4-2.7,4.9-4.7c1.5-2,2.7-4.3,3.8-6.8c1.1-2.6,1.9-5.2,2.5-8c0.6-3.1,0.9-6.2,0.8-9.4
		c-0.1-3.1-0.5-6-1.2-8.6c-0.7-2.6-1.9-4.8-3.5-6.6c-1.6-1.8-3.6-2.9-6.1-3.4c-0.3-0.1-0.6-0.1-0.9-0.1c-0.3,0-0.6,0-0.9,0
		c-2,0-4,0.6-5.7,1.7c-1.8,1.1-3.4,2.7-4.9,4.6c-1.5,1.9-2.8,4.2-4,6.7c-1.2,2.5-2.2,5.1-3,7.9c-0.7,3.1-1.2,6.3-1.2,9.5
		c-0.1,3.2,0.3,6.2,1.1,8.8c0.8,2.7,2.1,4.9,3.9,6.8C184.2,281.3,186.6,282.4,189.5,282.8z"/>
	<linearGradient id="SVGID_2_" gradientUnits="userSpaceOnUse" x1="228.5391" y1="259.4106" x2="293.9341" y2="259.4106">
		<stop  offset="0" style="stop-color:#D80027"/>
		<stop  offset="0.5503" style="stop-color:#B3B3B3"/>
		<stop  offset="1" style="stop-color:#000000"/>
	</linearGradient>
	<path class="st6" d="M237.3,218c5.2-1.5,10.2-2.6,15-3.4c4.7-0.8,9.3-1.2,13.5-1.2c2.2,0,4.4,0.1,6.4,0.3c3.6,0.4,6.8,1.3,9.7,2.7
		c2.8,1.4,5.2,3.2,7.1,5.6c1.9,2.3,3.3,5.2,4.1,8.5c0.8,3.4,0.9,7.3,0.4,11.7c-0.7,6-2.5,11-5.1,14.9c-2.7,4-6.1,7-10.3,9.1l16,26.9
		c-2.4,1.8-4.9,3.8-7.6,6c-2.7,2.2-5.3,4.3-8,6.4c-3.3-5.8-6.7-11.6-10.2-17.5c-3.5-5.9-6.9-11.8-10.2-17.9c-1.4,0-2.7,0-3.9-0.1
		c-1.3-0.1-2.6-0.1-3.9-0.1c-0.5,5.3-1.1,10.6-1.7,15.8c-0.6,5.2-1.1,10.4-1.7,15.6c-3.1,0.1-6,0.3-8.9,0.4c-2.9,0.1-6,0.3-9.3,0.4
		L237.3,218z M251.9,253.3c0.9,0.1,1.7,0.1,2.5,0.1c0.8,0,1.5,0,2.3,0c5.3,0,9.5-0.7,12.7-2.2c3.2-1.5,5.3-4.3,6.2-8.4
		c0.9-3.7,0.4-6.6-1.5-8.6c-2-2-4.8-3.2-8.6-3.5c-0.3,0-0.7,0-1-0.1c-0.3,0-0.7-0.1-1-0.1c-1.4,0-2.9,0.1-4.5,0.3
		c-1.6,0.2-3.2,0.4-4.8,0.8c-0.3,3.7-0.7,7.3-1.1,10.9C252.6,246.1,252.3,249.7,251.9,253.3z"/>
	<linearGradient id="SVGID_3_" gradientUnits="userSpaceOnUse" x1="301.5611" y1="258.9865" x2="327.5962" y2="258.9865">
		<stop  offset="0" style="stop-color:#D80027"/>
		<stop  offset="0.5503" style="stop-color:#B3B3B3"/>
		<stop  offset="1" style="stop-color:#000000"/>
	</linearGradient>
	<path class="st7" d="M319.8,301.3c-2.9,0.1-5.9,0.1-9,0.2c-3.1,0-6.2,0.1-9.2,0.2l6.9-85.2h19.1L319.8,301.3z"/>
	<linearGradient id="SVGID_4_" gradientUnits="userSpaceOnUse" x1="335.2486" y1="259.0925" x2="398.8882" y2="259.0925">
		<stop  offset="0" style="stop-color:#D80027"/>
		<stop  offset="0.5503" style="stop-color:#B3B3B3"/>
		<stop  offset="1" style="stop-color:#000000"/>
	</linearGradient>
	<path class="st8" d="M388.7,237.9c-3.7-3.6-7.8-5.4-12.2-5.4c-2.6,0-5.3,0.6-7.9,1.9c-2.6,1.3-5.1,3.2-7.3,5.7
		c-2.2,2.5-4.2,5.6-5.8,9.4c-1.6,3.7-2.7,8.1-3.3,13c-0.5,4-0.4,7.4,0.2,10.4c0.6,3,1.5,5.4,2.8,7.4c1.3,2,2.9,3.5,4.8,4.4
		c1.9,1,3.9,1.5,6,1.5c0.2,0,0.4,0,0.7-0.1c0.2,0,0.5-0.1,0.7-0.1c0.9-0.1,1.9-0.3,2.8-0.7c0.9-0.4,1.9-0.9,2.7-1.5l3.3-15.1
		l-12.2-1.1l4.1-15.8l26.8,1.5c-1.2,6.4-2.3,12.7-3.5,18.9c-1.2,6.2-2.3,12.5-3.6,18.9c-3.5,4-7.4,7.1-11.7,9.2
		c-4.3,2.1-8.7,3.2-13.2,3.2c-1.2,0-2.5-0.1-3.9-0.3c-3.6-0.5-7-1.7-10.1-3.5c-3.2-1.8-5.8-4.4-8.1-7.7s-3.8-7.3-4.8-12.1
		c-1-4.8-1.1-10.4-0.4-16.7c1-8.8,2.9-16.2,5.7-22.4c2.8-6.1,6.1-11.2,10-15c3.9-3.9,8.1-6.7,12.7-8.5c4.6-1.8,9.1-2.7,13.7-2.7
		c3.8,0,7.5,0.6,11.2,1.8c3.7,1.2,7,3,10,5.5L388.7,237.9z"/>
	<linearGradient id="SVGID_5_" gradientUnits="userSpaceOnUse" x1="402.2427" y1="258.9865" x2="428.2779" y2="258.9865">
		<stop  offset="0" style="stop-color:#D80027"/>
		<stop  offset="0.5503" style="stop-color:#B3B3B3"/>
		<stop  offset="1" style="stop-color:#000000"/>
	</linearGradient>
	<path class="st9" d="M420.4,301.3c-2.9,0.1-5.9,0.1-9,0.2c-3.1,0-6.2,0.1-9.2,0.2l6.9-85.2h19.1L420.4,301.3z"/>
	<linearGradient id="SVGID_6_" gradientUnits="userSpaceOnUse" x1="432.4468" y1="258.4042" x2="499.4683" y2="258.4042">
		<stop  offset="0" style="stop-color:#D80027"/>
		<stop  offset="0.5503" style="stop-color:#B3B3B3"/>
		<stop  offset="1" style="stop-color:#000000"/>
	</linearGradient>
	<path class="st10" d="M490.6,301.1c-2.6,0.1-5.3,0.1-8.1,0.2s-5.6,0.1-8.1,0.2l-18.8-47c-0.7,7.8-1.5,15.6-2.2,23.3
		c-0.7,7.7-1.4,15.4-2.2,23.1l-18.7,2.1l9.3-82.3l17.9-7l17.5,49.9l4.3-46.5c2.8-0.1,5.8-0.3,8.8-0.4c3-0.1,6.1-0.2,9.3-0.4
		L490.6,301.1z"/>
</g>
</svg>
